<svg xmlns="http://www.w3.org/2000/svg" xmlns:xlink="http://www.w3.org/1999/xlink" width="691.512" height="105.228" viewBox="0 0 691.512 105.228">
  <defs>
    <clipPath id="clip-path">
      <rect id="Rectangle_5" data-name="Rectangle 5" width="691.512" height="105.228" transform="translate(0 0)" fill="#f5f5f0"/>
    </clipPath>
  </defs>
  <g id="Group_36" data-name="Group 36" transform="translate(474 -321)">
    <g id="Group_15" data-name="Group 15" transform="translate(-474 321)" clip-path="url(#clip-path)">
      <path id="Path_35" data-name="Path 35" d="M60.362,99.308c2.125-1.275,4.255-3.83,4.255-10.066V11.523c0-6.236-2.13-8.791-4.255-10.066V.746h15.6v.712c-2.125,1.275-4.255,3.83-4.255,10.066V88.674c0,6.236,1.7,10.066,5.673,10.066h13.47c9.784,0,11.346-3.83,11.346-10.066h1.418V100.02H60.362Z" transform="translate(237.914 2.942)" fill="#f5f5f0"/>
      <path id="Path_36" data-name="Path 36" d="M69.114,52.192c0-32.05,17.3-51.905,43.114-51.905s43.109,19.855,43.109,51.905-17.3,51.905-43.109,51.905c-26.1,0-43.114-19.855-43.114-51.905m37.866,49.35c27.8,0,42.684-31.057,42.684-59.134,0-25.246-14.607-39.566-32.189-39.566C87.98,2.842,75.5,34.18,75.5,62.119c0,25.241,13.614,39.423,31.482,39.423" transform="translate(272.41 1.133)" fill="#f5f5f0"/>
      <path id="Path_37" data-name="Path 37" d="M87.424,99.308c2.13-1.275,4.255-3.83,4.255-10.066V11.523c0-6.236-2.125-8.791-4.255-10.066V.746h12.2L134.224,95.2a16.551,16.551,0,0,0,.85-5.954V11.523c0-6.236-2.13-8.791-4.255-10.066V.746h9.927v.712c-2.125,1.275-4.255,3.83-4.255,10.066V89.242c0,6.236,2.13,8.791,4.255,10.066v.712H128.408L93.947,5.712a16.887,16.887,0,0,0-.85,5.811V89.242c0,6.236,2.125,8.791,4.255,10.066v.712H87.424Z" transform="translate(344.578 2.942)" fill="#f5f5f0"/>
      <path id="Path_38" data-name="Path 38" d="M99.362,101.117c2.13-1.275,4.26-3.83,4.26-10.071V13.332c0-6.236-2.13-8.791-4.26-10.066V2.555h8.371c13.752,0,20.418-2.268,30.489-2.268,27.232,0,44.527,19.855,44.527,51.905S165.454,104.1,139.64,104.1c-11.489,0-22.4-2.273-32.332-2.273H99.362Zm35.03,1.418c27.8,0,42.689-32.05,42.689-60.128,0-25.246-14.607-40.7-38.86-40.7-3.968,0-27.509,1.275-27.509,18.723v80.121c8.5.287,17.438,1.986,23.679,1.986" transform="translate(391.631 1.133)" fill="#f5f5f0"/>
      <path id="Path_39" data-name="Path 39" d="M129.15,99.308c2.125-1.275,4.255-3.83,4.255-10.066V11.523c0-6.236-2.13-8.791-4.255-10.066V.746h12.2l34.6,94.451a16.662,16.662,0,0,0,.85-5.954V11.523c0-6.236-2.13-8.791-4.255-10.066V.746h9.927v.712c-2.13,1.275-4.255,3.83-4.255,10.066V89.242c0,6.236,2.125,8.791,4.255,10.066v.712H170.134L135.673,5.712a16.769,16.769,0,0,0-.85,5.811V89.242c0,6.236,2.125,8.791,4.255,10.066v.712H129.15Z" transform="translate(509.039 2.942)" fill="#f5f5f0"/>
      <path id="Path_40" data-name="Path 40" d="M21.679,100.687c2.125-1.275,4.255-3.83,4.255-10.066V12.9c0-6.236-2.13-8.791-4.255-10.066V2.125h9.784C41.109,2.125,54.441,0,62.663,0,74.291,0,87.054,3.4,87.054,14.889c0,24.253-44.527,22.548-44.671,31.057,0,1.7,1.137,2.13,2.268,2.13,6.666,0,12.2-10.214,25.953-10.214,15.882,0,25.809,10.071,32.9,52.76.993,6.236,2.13,8.791,4.255,10.066v.712h-15.6v-.712c1.843-1.137,3.691-3.118,2.98-12.2C89.891,46.657,83.506,39.285,70.6,39.285c-13.9,0-18.155,10.209-25.953,10.209-2.125,0-3.686-1.137-3.686-3.548v-.138c.425-9.221,37.58-9.077,37.58-30.919,0-9.077-5.954-13.47-15.882-13.47C52.593,1.418,33.025,3.261,33.025,20V90.621c0,6.236,2.13,8.791,4.255,10.066v.712h-15.6Z" transform="translate(85.447 0.001)" fill="#f5f5f0"/>
      <path id="Path_41" data-name="Path 41" d="M43.066,11.208c0-6.241-2.125-8.791-4.255-10.066V.431h15.6v.712c-2.13,1.275-4.255,3.825-4.255,10.066V68.075c0,25.246,5.673,31.769,16.737,31.769,15.457,0,19.568-11.771,19.568-31.769V11.208c0-6.241-2.13-8.791-4.255-10.066V.431h9.927v.712C90,2.417,87.88,4.967,87.88,11.208V68.5c0,18.155-3.261,32.762-20.986,32.762-13.189,0-23.684-6.523-23.828-32.762Z" transform="translate(152.972 1.7)" fill="#f5f5f0"/>
      <path id="Path_42" data-name="Path 42" d="M1.8,63.842c-5.964-23,3.261-47.275,22.143-57.637,16.327-8.944,29.248-7.383,36.631,0C70.368,16,64.829,29.489,76.614,31.757c6.246,1.137,12.635,2.841,18.031,9.369,7.239,8.806,7.239,21.441,2.555,32.371-6.251,14.335-20.443,25.7-39.467,28.532C27.639,106.575,7.76,86.982,1.8,63.842m93.127,9.512c5.4-12.492,3.691-22.716-2.555-29.387-5.253-5.678-10.649-5.678-18.313-7.383C61.281,33.748,62.985,14.437,57.589,7.623,50.637-1.035,38.57-.185,24.23,7.484,6.623,16.853.945,42.124,7.76,63.417c7.1,21.861,25.414,40.036,54.232,35.776,14.622-2.13,27.257-12.779,32.935-25.839" transform="translate(-0.002 0.27)" fill="#f5f5f0"/>
      <path id="Path_43" data-name="Path 43" d="M110.074,63.842c-5.964-23,3.261-47.275,22.143-57.637,16.327-8.944,29.248-7.383,36.631,0,9.794,9.794,4.255,23.284,16.04,25.552,6.246,1.137,12.635,2.841,18.031,9.369,7.239,8.806,7.239,21.441,2.555,32.371-6.251,14.335-20.443,25.7-39.467,28.532-30.093,4.546-49.973-15.047-55.932-38.188M203.2,73.354c5.4-12.492,3.691-22.716-2.555-29.387-5.253-5.678-10.649-5.678-18.313-7.383-12.779-2.836-11.074-22.148-16.47-28.962-6.953-8.657-19.02-7.807-33.36-.138-17.606,9.369-23.284,34.64-16.47,55.932,7.1,21.861,25.414,40.036,54.232,35.776,14.622-2.13,27.257-12.779,32.935-25.839" transform="translate(426.755 0.27)" fill="#f5f5f0"/>
    </g>
  </g>
</svg>
